<svg width="18" height="18" viewBox="0 0 18 18" fill="none" xmlns="http://www.w3.org/2000/svg">
<path d="M3.66822 7.03015C2.86672 7.03015 2.21094 7.68593 2.21094 8.48744C2.21094 9.28895 2.86672 9.94472 3.66822 9.94472C4.46973 9.94472 5.12551 9.28895 5.12551 8.48744C5.12551 7.68593 4.46973 7.03015 3.66822 7.03015Z" fill="#7E8492"/>
<path d="M13.8692 7.03015C13.0676 7.03015 12.4119 7.68593 12.4119 8.48744C12.4119 9.28895 13.0676 9.94472 13.8692 9.94472C14.6707 9.94472 15.3264 9.28895 15.3264 8.48744C15.3264 7.68593 14.6707 7.03015 13.8692 7.03015Z" fill="#7E8492"/>
<path d="M8.76857 7.03015C7.96706 7.03015 7.31128 7.68593 7.31128 8.48744C7.31128 9.28895 7.96706 9.94472 8.76857 9.94472C9.57007 9.94472 10.2259 9.28895 10.2259 8.48744C10.2259 7.68593 9.57007 7.03015 8.76857 7.03015Z" fill="#7E8492"/>
</svg>
